<?xml version="1.0" encoding="UTF-8" standalone="no"?>
<!-- Created with Inkscape (http://www.inkscape.org/) -->

<svg
   width="282.09891"
   height="227.3615"
   viewBox="0 0 74.63867 60.156067"
   version="1.1"
   id="svg5"
   inkscape:version="1.4.2 (ebf0e940, 2025-05-08)"
   sodipodi:docname="favicon.svg"
   inkscape:export-filename="logo.png"
   inkscape:export-xdpi="200"
   inkscape:export-ydpi="200"
   xmlns:inkscape="http://www.inkscape.org/namespaces/inkscape"
   xmlns:sodipodi="http://sodipodi.sourceforge.net/DTD/sodipodi-0.dtd"
   xmlns="http://www.w3.org/2000/svg"
   xmlns:svg="http://www.w3.org/2000/svg">
  <sodipodi:namedview
     id="namedview7"
     pagecolor="#ffffff"
     bordercolor="#666666"
     borderopacity="1.0"
     inkscape:pageshadow="2"
     inkscape:pageopacity="0.0"
     inkscape:pagecheckerboard="0"
     inkscape:document-units="mm"
     showgrid="false"
     units="px"
     width="1113px"
     height="835px"
     inkscape:zoom="0.88783957"
     inkscape:cx="69.269272"
     inkscape:cy="133.47006"
     inkscape:window-width="1408"
     inkscape:window-height="888"
     inkscape:window-x="0"
     inkscape:window-y="37"
     inkscape:window-maximized="0"
     inkscape:current-layer="svg5"
     fit-margin-top="0"
     fit-margin-left="0"
     fit-margin-right="0"
     fit-margin-bottom="0"
     inkscape:showpageshadow="2"
     inkscape:deskcolor="#d1d1d1" />
  <defs
     id="defs2" />
  <circle
     style="display:none;opacity:0.202417;mix-blend-mode:normal;fill:#1a1a1a;stroke-width:0.301131"
     id="path1"
     cx="40.382153"
     cy="31.095798"
     r="46" />
  <g
     inkscape:groupmode="layer"
     id="layer2"
     inkscape:label="Layer 2"
     style="display:inline"
     transform="translate(-219.16167,-52.413401)">
    <path
       id="path2140"
       style="display:inline;fill:#000000;fill-opacity:1;stroke:none;stroke-width:0.222077px;stroke-linecap:butt;stroke-linejoin:miter;stroke-opacity:1"
       d="m 225.02887,82.474429 c 0.003,0.0204 0.006,0.0407 0.009,0.0611 0.009,0.0618 0.0172,0.12395 0.0248,0.18582 0.008,0.0619 0.0145,0.12335 0.0208,0.18497 0.006,0.0616 0.0119,0.12304 0.0163,0.18412 0.005,0.0611 0.009,0.12174 0.0112,0.182 0.003,0.0602 0.005,0.12031 0.006,0.17945 0,0.0591 0,0.11748 0,0.17521 0,0.0577 -0.003,0.11494 -0.006,0.17097 -0.003,0.056 -0.008,0.11099 -0.0134,0.16502 -0.003,0.027 -0.005,0.0537 -0.009,0.0802 -0.003,0.0265 -0.008,0.0526 -0.0116,0.0785 -0.004,0.0259 -0.009,0.0515 -0.0129,0.0768 -0.005,0.0252 -0.01,0.0501 -0.0154,0.0747 -0.005,0.0246 -0.0106,0.0491 -0.0168,0.073 -0.006,0.0239 -0.0127,0.0473 -0.0195,0.0704 -0.007,0.0232 -0.0141,0.0459 -0.0218,0.0683 -0.008,0.0224 -0.0157,0.0446 -0.0239,0.0662 -0.0252,0.0654 -0.0519,0.13186 -0.0798,0.19897 -0.0279,0.0671 -0.0566,0.13502 -0.0865,0.20364 -0.0596,0.13723 -0.1224,0.27693 -0.18491,0.41914 -0.0312,0.0711 -0.0623,0.143 -0.0931,0.21509 -0.0308,0.0721 -0.0613,0.14474 -0.0909,0.21764 -0.0296,0.0729 -0.0583,0.1458 -0.086,0.21933 -0.0138,0.0368 -0.0272,0.0738 -0.0403,0.11072 -0.0132,0.0369 -0.0262,0.0737 -0.0386,0.11073 -0.0124,0.037 -0.0244,0.0741 -0.036,0.11115 -0.0116,0.0371 -0.023,0.074 -0.0337,0.11115 -0.0106,0.0371 -0.0204,0.0744 -0.0301,0.11158 -0.01,0.0372 -0.019,0.0744 -0.0275,0.11157 -0.009,0.0372 -0.0163,0.0744 -0.0235,0.11157 -0.007,0.0372 -0.0141,0.0744 -0.02,0.11158 -0.006,0.0371 -0.0109,0.074 -0.0154,0.11115 -0.004,0.0371 -0.009,0.0741 -0.0116,0.11115 -0.003,0.037 -0.005,0.0742 -0.007,0.11115 -0.003,0.0369 -0.003,0.0739 -0.003,0.11073 0,0.0368 0.003,0.0736 0.003,0.1103 0.003,0.0367 0.005,0.0733 0.009,0.10988 0.004,0.0365 0.009,0.0727 0.015,0.10902 0.006,0.0363 0.0132,0.0729 0.0214,0.10903 0.009,0.0361 0.0177,0.0718 0.0279,0.10776 0.0102,0.0359 0.0215,0.0721 0.0342,0.10776 0.006,0.0178 0.013,0.0351 0.02,0.0526 0.007,0.0176 0.0141,0.0353 0.0218,0.0526 0.015,0.0346 0.0313,0.0689 0.0487,0.10266 0.0175,0.0338 0.0362,0.0672 0.0559,0.10012 0.0197,0.033 0.0403,0.0654 0.0621,0.0976 0.0218,0.0322 0.0442,0.064 0.0678,0.0955 0.0237,0.0315 0.0482,0.0625 0.0736,0.0933 0.0255,0.0308 0.0518,0.0614 0.079,0.0916 0.027,0.0302 0.0548,0.0603 0.0833,0.0899 0.0286,0.0297 0.0579,0.0591 0.0878,0.0882 0.0299,0.0292 0.0607,0.0578 0.0918,0.0865 0.0311,0.0287 0.0627,0.0574 0.0949,0.0857 0.0321,0.0283 0.0645,0.0565 0.0975,0.0844 0.033,0.0279 0.0668,0.0555 0.10067,0.0831 0.0338,0.0277 0.0675,0.0553 0.102,0.0827 0.0688,0.0548 0.13889,0.10915 0.20932,0.16333 0.14085,0.10837 0.28377,0.21586 0.42396,0.32412 0.0701,0.0541 0.13938,0.1086 0.20753,0.16333 0.0341,0.0274 0.0682,0.0547 0.10156,0.0823 0.0334,0.0276 0.0663,0.0553 0.0989,0.0831 0.0325,0.0279 0.0643,0.0558 0.0958,0.084 0.0316,0.0282 0.0627,0.0567 0.0931,0.0853 0.0304,0.0286 0.0604,0.0575 0.0896,0.0865 0.0291,0.029 0.0574,0.0583 0.0851,0.0878 0.0277,0.0295 0.0546,0.059 0.0808,0.0891 0.0262,0.0301 0.0514,0.0606 0.0759,0.0912 0.0244,0.0307 0.048,0.0616 0.0705,0.0929 0.0225,0.0313 0.0442,0.063 0.0648,0.095 0.01,0.0153 0.02,0.0306 0.0306,0.0458 0.0106,0.0153 0.022,0.0306 0.0337,0.0458 0.0116,0.0152 0.0234,0.0302 0.036,0.0454 0.0125,0.0152 0.0257,0.0306 0.039,0.0458 0.0265,0.0304 0.0546,0.0606 0.0843,0.0908 0.0112,0.0114 0.0234,0.0226 0.035,0.0339 -2.95207,1.10486 -6.42658,1.90837 -7.07902,-0.26557 -1.23935,-4.12959 2.8403,-7.01657 4.89362,-8.39524 z" />
    <path
       id="path1639"
       style="display:inline;fill:#fea600;fill-opacity:1;stroke:none;stroke-width:0.922;stroke-linecap:butt;stroke-linejoin:miter;stroke-miterlimit:4;stroke-dasharray:none;stroke-opacity:0.111111"
       d="m 235.53813,69.746569 c 0.28398,-0.0883 0.57215,-0.17689 0.86166,-0.2643 0.30337,-0.0916 0.6076,-0.18179 0.90821,-0.26897 0.30061,-0.0872 0.59766,-0.17148 0.88649,-0.25073 0.14441,-0.0396 0.28684,-0.078 0.42661,-0.11496 0.13977,-0.037 0.2771,-0.0726 0.41109,-0.10649 0.13399,-0.0339 0.26449,-0.0659 0.39158,-0.0963 0.12709,-0.0304 0.25079,-0.0589 0.36985,-0.0853 0.11906,-0.0264 0.23379,-0.0506 0.34368,-0.0725 0.10989,-0.022 0.21482,-0.0418 0.31442,-0.059 0.0996,-0.0171 0.19386,-0.0318 0.28204,-0.0437 0.0882,-0.0119 0.17007,-0.0206 0.24569,-0.0267 0.0378,-0.003 0.0742,-0.006 0.10865,-0.007 0.0345,-0.002 0.067,-0.002 0.098,-0.002 0.031,3e-5 0.0601,9.1e-4 0.0874,0.002 0.0274,0.002 0.0531,0.004 0.0767,0.007 0.0235,0.003 0.0451,0.008 0.0647,0.0127 0.0197,0.005 0.0372,0.011 0.0528,0.0178 0.0156,0.007 0.0294,0.0146 0.0408,0.0233 0.0114,0.009 0.0204,0.0182 0.0275,0.0288 0.007,0.0106 0.0141,0.0229 0.0208,0.0361 0.007,0.0132 0.0135,0.0272 0.02,0.0428 0.013,0.0313 0.0252,0.0678 0.0373,0.10861 0.012,0.0408 0.0234,0.086 0.0346,0.13575 0.0112,0.0498 0.022,0.10393 0.0324,0.16206 0.0105,0.0581 0.0208,0.12031 0.0306,0.18624 0.01,0.0659 0.0195,0.13555 0.0288,0.20873 0.0187,0.14635 0.0365,0.30665 0.0541,0.47854 0.0177,0.17189 0.0352,0.35566 0.0528,0.54854 0.0176,0.19288 0.0354,0.3948 0.0541,0.60411 0.0186,0.20932 0.0378,0.42577 0.0585,0.64697 0.0207,0.22119 0.0427,0.44728 0.0665,0.67581 0.0238,0.22853 0.0497,0.45935 0.0776,0.69066 0.014,0.11565 0.0282,0.23153 0.0434,0.34702 0.0152,0.1155 0.0313,0.23099 0.0479,0.34576 0.0166,0.11477 0.0338,0.22888 0.0519,0.34236 0.0181,0.11347 0.0371,0.22608 0.0567,0.33769 0.0196,0.11161 0.0402,0.22215 0.0616,0.33133 0.0215,0.10918 0.0437,0.2171 0.0669,0.32327 0.0233,0.10617 0.0474,0.21049 0.0727,0.31309 0.0253,0.1026 0.0519,0.20359 0.0794,0.30206 0.0275,0.0985 0.0563,0.19473 0.086,0.28848 0.0298,0.0937 0.0605,0.18473 0.0927,0.27321 0.0322,0.0885 0.0655,0.17404 0.10022,0.25666 0.0347,0.0826 0.0708,0.16221 0.10821,0.23842 0.0187,0.0381 0.0378,0.0756 0.0572,0.112 0.0194,0.0364 0.0389,0.0719 0.059,0.10648 0.0201,0.0346 0.0409,0.0682 0.0616,0.10097 0.0208,0.0328 0.0419,0.0646 0.0634,0.0954 0.0785,0.11239 0.15443,0.21713 0.22794,0.31479 0.0735,0.0976 0.14443,0.18825 0.21331,0.27321 0.0688,0.085 0.13581,0.16412 0.20044,0.23842 0.0646,0.0743 0.12724,0.1439 0.18803,0.20957 0.0608,0.0657 0.11958,0.12716 0.17694,0.18624 0.0573,0.0591 0.1133,0.11559 0.16763,0.17012 0.10865,0.10908 0.21151,0.21126 0.31043,0.31436 0.0494,0.0515 0.0978,0.10301 0.14545,0.15612 0.0476,0.0531 0.0944,0.1079 0.14059,0.16461 0.0462,0.0567 0.0918,0.11541 0.13702,0.17775 0.0452,0.0623 0.0902,0.1281 0.13481,0.19812 0.0445,0.07 0.0887,0.14427 0.13304,0.224 0.0444,0.0797 0.0889,0.16519 0.13349,0.25666 0.0445,0.0915 0.0892,0.18916 0.13437,0.29442 0.0451,0.10526 0.0905,0.21789 0.13658,0.33897 0.0464,0.122 0.0917,0.24702 0.13526,0.37503 0.0435,0.12801 0.0855,0.25914 0.12594,0.39242 0.0405,0.13327 0.0793,0.26904 0.11663,0.40684 0.0373,0.1378 0.0732,0.27756 0.10732,0.41915 0.0341,0.14159 0.0664,0.28469 0.0971,0.42933 0.0307,0.14463 0.0596,0.29087 0.0869,0.43781 0.0272,0.14694 0.0526,0.29483 0.0763,0.44333 0.0237,0.1485 0.0457,0.2974 0.0657,0.44672 0.02,0.14932 0.0379,0.29902 0.0541,0.44842 0.0161,0.1494 0.0307,0.29841 0.043,0.44715 0.0123,0.14874 0.0223,0.29727 0.0306,0.4446 0.009,0.14733 0.0145,0.29347 0.0186,0.43866 0.004,0.14519 0.006,0.28915 0.006,0.43145 -1.1e-4,0.14231 -0.003,0.28302 -0.007,0.42169 -0.004,0.13868 -0.0111,0.27551 -0.02,0.40982 -0.009,0.13431 -0.0203,0.26619 -0.0337,0.39539 -0.009,0.0874 -0.0204,0.17624 -0.0342,0.26642 -0.007,0.0461 -0.0162,0.0936 -0.0244,0.14042 -0.031,-0.002 -0.0551,-0.004 -0.086,-0.006 -1.80899,-0.11821 -3.51488,-0.21993 -4.19783,-0.25836 -1.26141,-0.071 -10.55223,1.76651 -14.24675,3.26494 -0.28748,0.11659 -0.59054,0.23012 -0.8927,0.3432 -0.0116,-0.0113 -0.0239,-0.0226 -0.035,-0.0339 -0.0297,-0.0302 -0.0577,-0.0604 -0.0843,-0.0908 -0.0134,-0.0152 -0.0266,-0.0306 -0.039,-0.0458 -0.0125,-0.0152 -0.0243,-0.0301 -0.036,-0.0454 -0.0116,-0.0152 -0.023,-0.0306 -0.0337,-0.0458 -0.0106,-0.0153 -0.0209,-0.0306 -0.0306,-0.0458 -0.0207,-0.032 -0.0422,-0.0637 -0.0647,-0.095 -0.0225,-0.0313 -0.0461,-0.0623 -0.0705,-0.0929 -0.0244,-0.0306 -0.0497,-0.0611 -0.0759,-0.0912 -0.0262,-0.0301 -0.053,-0.0596 -0.0807,-0.0891 -0.0277,-0.0295 -0.056,-0.0588 -0.0851,-0.0878 -0.0292,-0.029 -0.0592,-0.058 -0.0896,-0.0866 -0.0305,-0.0286 -0.0615,-0.0571 -0.0931,-0.0853 -0.0316,-0.0282 -0.0632,-0.0561 -0.0958,-0.084 -0.0325,-0.0279 -0.0655,-0.0556 -0.0989,-0.0831 -0.0334,-0.0276 -0.0675,-0.0549 -0.10155,-0.0823 -0.0681,-0.0547 -0.13747,-0.1092 -0.20754,-0.16333 -0.1402,-0.10826 -0.28312,-0.21575 -0.42396,-0.32412 -0.0705,-0.0542 -0.14047,-0.10849 -0.20931,-0.16333 -0.0344,-0.0274 -0.0682,-0.0551 -0.10201,-0.0827 -0.0338,-0.0277 -0.0676,-0.0552 -0.10066,-0.0831 -0.033,-0.028 -0.0655,-0.0561 -0.0976,-0.0844 -0.0322,-0.0283 -0.0639,-0.057 -0.0949,-0.0857 -0.0311,-0.0287 -0.0619,-0.0574 -0.0918,-0.0866 -0.0299,-0.0291 -0.0592,-0.0586 -0.0878,-0.0882 -0.0286,-0.0297 -0.0563,-0.0597 -0.0834,-0.0899 -0.0271,-0.0302 -0.0535,-0.0608 -0.0789,-0.0916 -0.0254,-0.0308 -0.05,-0.0618 -0.0736,-0.0933 -0.0237,-0.0315 -0.0461,-0.0633 -0.0679,-0.0955 -0.0218,-0.0322 -0.0424,-0.0646 -0.062,-0.0976 -0.0197,-0.033 -0.0384,-0.0663 -0.0559,-0.10012 -0.0175,-0.0338 -0.0337,-0.068 -0.0487,-0.10266 -0.008,-0.0173 -0.0147,-0.035 -0.0217,-0.0526 -0.007,-0.0176 -0.0136,-0.0348 -0.02,-0.0526 -0.0127,-0.0357 -0.0239,-0.0718 -0.0342,-0.10776 -0.0102,-0.0359 -0.0197,-0.0716 -0.028,-0.10775 -0.009,-0.0362 -0.0152,-0.0727 -0.0213,-0.10903 -0.006,-0.0363 -0.0113,-0.0725 -0.0151,-0.10903 -0.004,-0.0365 -0.007,-0.0732 -0.009,-0.10988 -0.003,-0.0367 -0.003,-0.0735 -0.003,-0.1103 0,-0.0368 -1.8e-4,-0.0738 0.003,-0.11073 0.003,-0.0369 0.003,-0.0741 0.007,-0.11115 0.003,-0.037 0.007,-0.074 0.0115,-0.11115 0.004,-0.0371 0.01,-0.074 0.0155,-0.11115 0.006,-0.0372 0.0127,-0.0744 0.02,-0.11157 0.007,-0.0372 0.015,-0.0744 0.0235,-0.11158 0.009,-0.0372 0.0179,-0.0744 0.0275,-0.11157 0.01,-0.0372 0.0195,-0.0744 0.0301,-0.11158 0.0106,-0.0371 0.022,-0.0741 0.0337,-0.11115 0.0116,-0.0371 0.0235,-0.0742 0.036,-0.11115 0.0124,-0.037 0.0254,-0.0738 0.0386,-0.11072 0.0131,-0.0369 0.0265,-0.074 0.0403,-0.11073 0.0276,-0.0735 0.0565,-0.14644 0.086,-0.21933 0.0296,-0.0729 0.0601,-0.14555 0.0909,-0.21764 0.0308,-0.0721 0.0619,-0.14398 0.0931,-0.21508 0.0625,-0.14222 0.12532,-0.28191 0.18492,-0.41915 0.0298,-0.0686 0.0586,-0.13652 0.0865,-0.20364 0.0279,-0.0671 0.0546,-0.13353 0.0798,-0.19897 0.009,-0.0216 0.0164,-0.0438 0.0239,-0.0662 0.008,-0.0224 0.0149,-0.0451 0.0217,-0.0683 0.007,-0.0232 0.0134,-0.0465 0.0195,-0.0704 0.006,-0.0239 0.0114,-0.0484 0.0168,-0.073 0.005,-0.0246 0.011,-0.0494 0.0155,-0.0747 0.005,-0.0253 0.009,-0.0509 0.0129,-0.0768 0.004,-0.0259 0.008,-0.052 0.0115,-0.0785 0.003,-0.0265 0.006,-0.0532 0.009,-0.0802 0.006,-0.054 0.01,-0.109 0.0133,-0.16502 0.003,-0.056 0.005,-0.11325 0.006,-0.17097 v -0.17521 c 0,-0.0591 -0.003,-0.1192 -0.006,-0.17945 -0.003,-0.0603 -0.006,-0.12092 -0.0111,-0.182 -0.004,-0.0611 -0.0103,-0.1225 -0.0164,-0.18412 -0.006,-0.0616 -0.0131,-0.1231 -0.0208,-0.18497 -0.008,-0.0619 -0.016,-0.12399 -0.0248,-0.18581 -0.003,-0.0204 -0.006,-0.0407 -0.009,-0.0611 0.51327,-0.34464 0.93506,-0.62057 1.07452,-0.7683 3.6203,-3.83547 7.81811,-9.35022 9.34956,-11.78321 0.0134,-0.0215 0.0323,-0.0638 0.0475,-0.0916 0,0 0.0177,-0.0102 0.0191,-0.011 -4.5e-4,2.6e-4 -0.02,0.011 -0.02,0.011 0.01,-0.0178 0.0273,-0.0645 0.0377,-0.0848 z" />
    <path
       id="path7035"
       style="display:inline;fill:#72894b;fill-opacity:1;stroke:none;stroke-width:0.222077px;stroke-linecap:butt;stroke-linejoin:miter;stroke-opacity:1"
       d="m 281.50103,107.8375 c -0.45983,-0.17638 -0.91191,-0.3506 -1.31576,-0.50909 -0.47286,-0.18558 -0.89709,-0.35535 -1.24969,-0.50103 -0.19352,-0.08 -0.38311,-0.15978 -0.56852,-0.24012 -0.18541,-0.0804 -0.36673,-0.16092 -0.54458,-0.24223 -0.17785,-0.0813 -0.35199,-0.1636 -0.52284,-0.24649 -0.17086,-0.0829 -0.33845,-0.16652 -0.50289,-0.25158 -0.16444,-0.085 -0.32568,-0.17139 -0.48427,-0.2592 -0.15858,-0.0878 -0.31455,-0.17694 -0.46785,-0.26812 -0.15331,-0.0912 -0.30419,-0.18445 -0.45278,-0.27957 -0.14859,-0.0951 -0.29459,-0.19221 -0.43903,-0.29188 -0.14444,-0.0997 -0.28707,-0.20192 -0.42794,-0.30673 -0.14086,-0.1048 -0.28033,-0.2123 -0.41818,-0.32284 -0.13787,-0.11054 -0.27435,-0.22421 -0.40977,-0.34108 -0.13541,-0.11687 -0.26956,-0.23682 -0.40311,-0.36061 -0.13355,-0.12379 -0.26643,-0.25136 -0.39867,-0.38266 -0.13225,-0.13131 -0.26406,-0.26658 -0.39557,-0.406 -0.13152,-0.13942 -0.26245,-0.2829 -0.39379,-0.43101 -0.13135,-0.14813 -0.26294,-0.30075 -0.39469,-0.45818 -0.0666,-0.0795 -0.13175,-0.15996 -0.19513,-0.24097 -0.0633,-0.081 -0.1251,-0.16277 -0.18537,-0.24521 -0.0602,-0.0824 -0.11881,-0.16522 -0.17605,-0.24902 -0.0572,-0.0838 -0.11289,-0.16857 -0.16718,-0.2537 -0.0543,-0.0851 -0.10733,-0.17069 -0.15877,-0.25709 -0.0514,-0.0864 -0.10125,-0.17371 -0.14989,-0.26133 -0.0487,-0.0876 -0.096,-0.1755 -0.14192,-0.264301 -0.046,-0.0888 -0.0906,-0.1782 -0.13392,-0.26812 -0.0433,-0.0899 -0.0856,-0.18052 -0.12639,-0.27151 -0.0409,-0.091 -0.0805,-0.18247 -0.11885,-0.27448 -0.0384,-0.092 -0.0753,-0.18447 -0.11131,-0.27745 -0.036,-0.093 -0.071,-0.18652 -0.10465,-0.28042 -0.0675,-0.1878 -0.13055,-0.3773 -0.18936,-0.56848 -0.0588,-0.19118 -0.11325,-0.38408 -0.16409,-0.57824 -0.0508,-0.19416 -0.0979,-0.38956 -0.14146,-0.5863 -0.0435,-0.19673 -0.0838,-0.39459 -0.12062,-0.59351 -0.0369,-0.1989 -0.0702,-0.39876 -0.10112,-0.59944 -0.0309,-0.20068 -0.0591,-0.40249 -0.0847,-0.60454 -0.0256,-0.20205 -0.0487,-0.40449 -0.0696,-0.60751 -0.0209,-0.20302 -0.0394,-0.40647 -0.0563,-0.61006 -0.0169,-0.20358 -0.0321,-0.40715 -0.0456,-0.6109 -0.0136,-0.20374 -0.0255,-0.40782 -0.0364,-0.61132 -0.007,-0.13487 -0.0123,-0.26957 -0.0151,-0.40473 -0.003,-0.13516 -0.003,-0.27069 -0.003,-0.40599 0.002,-0.13531 0.004,-0.2707 0.01,-0.406 0.005,-0.1353 0.0125,-0.27042 0.0213,-0.40557 0.009,-0.13516 0.0193,-0.27029 0.0315,-0.40515 0.0122,-0.13485 0.0259,-0.26946 0.0413,-0.40387 0.0153,-0.13441 0.0319,-0.26836 0.0501,-0.40218 0.0182,-0.13382 0.0378,-0.2674 0.0585,-0.40048 0.0416,-0.26615 0.0882,-0.5306 0.13881,-0.7929 0.0506,-0.2623 0.1055,-0.52249 0.1632,-0.77975 0.0577,-0.25726 0.11817,-0.51174 0.18093,-0.76278 0.0627,-0.25104 0.12751,-0.49878 0.19335,-0.74242 0.0658,-0.24363 0.13307,-0.48319 0.2,-0.71823 0.0669,-0.23505 0.13352,-0.46539 0.19956,-0.69066 0.13208,-0.45054 0.26035,-0.88024 0.37694,-1.28459 0.0583,-0.20218 0.11397,-0.3983 0.16541,-0.58715 0.0515,-0.18885 0.0989,-0.3708 0.14148,-0.54515 0.0427,-0.17434 0.0804,-0.34109 0.11219,-0.49975 0.0159,-0.0793 0.0302,-0.15645 0.043,-0.23163 0.0128,-0.0752 0.0242,-0.14844 0.0337,-0.21933 0.0111,-0.0829 0.0208,-0.16801 0.0293,-0.25539 0.009,-0.0874 0.016,-0.17708 0.0221,-0.26855 0.0123,-0.18293 0.02,-0.37349 0.0239,-0.5706 0.004,-0.19711 0.004,-0.40078 0.002,-0.6092 -0.003,-0.20842 -0.009,-0.42161 -0.0178,-0.63848 -0.009,-0.21687 -0.019,-0.43724 -0.0315,-0.65969 -0.0125,-0.22245 -0.0267,-0.44682 -0.0417,-0.67199 -0.0299,-0.45035 -0.0632,-0.90336 -0.0945,-1.34738 -0.0156,-0.22202 -0.0305,-0.44186 -0.0444,-0.658 -0.0137,-0.21613 -0.0264,-0.42854 -0.0368,-0.63593 -0.0105,-0.20739 -0.0188,-0.4096 -0.0244,-0.60539 -0.006,-0.19578 -0.009,-0.38504 -0.008,-0.56635 6.8e-4,-0.18132 0.004,-0.35487 0.0129,-0.51885 0.004,-0.082 0.01,-0.16173 0.016,-0.23884 0.006,-0.0771 0.0138,-0.15169 0.0227,-0.22358 0.009,-0.0719 0.0188,-0.14115 0.0301,-0.20745 0.0113,-0.0663 0.024,-0.12971 0.0381,-0.19006 0.0141,-0.0603 0.0295,-0.11734 0.0466,-0.17139 0.017,-0.054 0.0357,-0.10492 0.0559,-0.1523 0.0235,-0.0552 0.0491,-0.11151 0.0767,-0.16885 0.0277,-0.0573 0.0575,-0.11586 0.0891,-0.17521 0.0633,-0.11869 0.13412,-0.24123 0.21198,-0.36696 0.0778,-0.12573 0.1627,-0.25459 0.25322,-0.38606 0.0905,-0.13147 0.18694,-0.26544 0.28825,-0.40133 0.10131,-0.13589 0.20728,-0.27377 0.31752,-0.41278 0.11024,-0.13902 0.22462,-0.27917 0.34191,-0.42 0.11729,-0.14082 0.23762,-0.28206 0.3601,-0.42339 0.12247,-0.14133 0.24715,-0.28286 0.37295,-0.42339 0.25158,-0.28105 0.5078,-0.55896 0.76142,-0.82896 0.25363,-0.27 0.50475,-0.53212 0.74547,-0.7806 0.48144,-0.49695 0.92199,-0.9403 1.2621,-1.28841 0.18054,-0.18479 0.37005,-0.37182 0.5663,-0.56041 0.19625,-0.1886 0.39919,-0.37855 0.60755,-0.56891 0.20836,-0.19035 0.42216,-0.38138 0.63903,-0.57145 0.21687,-0.19006 0.43677,-0.37947 0.65855,-0.5672 0.22179,-0.18773 0.44521,-0.37368 0.6683,-0.55703 0.0126,-0.0104 0.0251,-0.0202 0.0377,-0.0306 0.0886,0.0751 0.17764,0.14975 0.26519,0.22612 0.13169,0.11486 0.2621,0.23093 0.39159,0.34873 0.12948,0.11779 0.25802,0.23706 0.38537,0.35763 0.25468,0.24113 0.5048,0.48785 0.75122,0.73902 0.24643,0.25117 0.48915,0.50676 0.72772,0.7666 0.23859,0.25984 0.47308,0.52364 0.70422,0.79078 0.23116,0.26713 0.45881,0.53766 0.68294,0.81072 0.22413,0.27305 0.44501,0.54881 0.66254,0.82641 0.21753,0.2776 0.43168,0.5571 0.64303,0.83787 0.21133,0.28077 0.4197,0.56295 0.62527,0.84551 0.2424,0.33317 0.47833,0.66682 0.70734,1.0012 0.229,0.33438 0.45105,0.66941 0.66653,1.00544 0.21547,0.33604 0.42435,0.67283 0.62617,1.01096 0.20182,0.33813 0.3969,0.6775 0.58493,1.01817 0.18804,0.34068 0.36913,0.68258 0.54324,1.02624 0.0871,0.17182 0.17233,0.34406 0.25588,0.51672 0.0836,0.17265 0.1652,0.34572 0.24524,0.51926 0.0801,0.17355 0.15854,0.34776 0.23504,0.52224 0.0765,0.17448 0.151,0.34931 0.22394,0.52478 0.0729,0.17548 0.14394,0.35165 0.21331,0.52818 0.0693,0.17653 0.13732,0.35351 0.2031,0.53115 0.0658,0.17763 0.1294,0.35574 0.19158,0.53454 0.0622,0.17879 0.12282,0.35834 0.18138,0.53835 0.0586,0.18002 0.11536,0.36047 0.17029,0.54176 0.0549,0.18128 0.10793,0.36338 0.1592,0.54599 0.0513,0.18261 0.10051,0.36582 0.14812,0.54981 0.0476,0.184 0.0935,0.36862 0.13748,0.55406 0.0439,0.18543 0.0862,0.37179 0.12639,0.55872 0.0402,0.18693 0.0784,0.37448 0.11485,0.56296 0.0365,0.18848 0.0714,0.37797 0.10422,0.56806 0.0328,0.19008 0.0637,0.38097 0.0927,0.57272 0.029,0.19174 0.0559,0.38435 0.0812,0.57781 0.0252,0.19346 0.0486,0.38767 0.0701,0.5829 0.0215,0.19524 0.0413,0.39136 0.059,0.58842 0.0177,0.19706 0.0331,0.39499 0.047,0.59393 0.0138,0.19895 0.0259,0.399 0.036,0.59988 0.01,0.20088 0.0182,0.40251 0.0244,0.60538 0.005,0.17735 0.009,0.35612 0.01,0.53582 0.002,0.1797 4.6e-4,0.36034 -0.003,0.54217 -0.003,0.18184 -0.008,0.3648 -0.0142,0.54854 -0.007,0.18375 -0.0158,0.36819 -0.0266,0.55363 -0.0108,0.18545 -0.0238,0.37181 -0.0386,0.55872 -0.0148,0.18692 -0.0314,0.3748 -0.0501,0.56297 -0.0187,0.18817 -0.0395,0.37673 -0.0621,0.56593 -0.0226,0.18921 -0.0471,0.37888 -0.0736,0.56891 -0.0264,0.19002 -0.0548,0.3804 -0.0851,0.57102 -0.0303,0.19062 -0.0626,0.3813 -0.0967,0.5723 -0.0341,0.19099 -0.0699,0.38241 -0.10776,0.57357 -0.0378,0.19115 -0.0777,0.38205 -0.1193,0.57314 -0.0415,0.19109 -0.0847,0.38234 -0.12993,0.57315 -0.0452,0.19081 -0.0926,0.38114 -0.14147,0.57145 -0.0489,0.19031 -0.0996,0.38058 -0.1521,0.57017 -0.0525,0.18959 -0.10709,0.37856 -0.1632,0.56721 -0.0561,0.18865 -0.11373,0.37674 -0.17339,0.56423 -0.0596,0.1875 -0.12131,0.37473 -0.18448,0.56085 -0.0632,0.18611 -0.12804,0.37123 -0.19468,0.55575 -0.0667,0.18451 -0.13479,0.36839 -0.20488,0.55108 -0.0701,0.1827 -0.14203,0.36449 -0.21553,0.54515 -0.0735,0.18066 -0.14885,0.35995 -0.22572,0.53836 -0.0769,0.1784 -0.15528,0.35564 -0.23548,0.531571 -0.0802,0.17593 -0.16216,0.3507 -0.24568,0.52393 -0.0835,0.17323 -0.16865,0.34513 -0.25544,0.51545 -0.0868,0.17032 -0.17517,0.33893 -0.26519,0.50612 -0.09,0.16718 -0.18174,0.33295 -0.27495,0.49678 -0.0932,0.16383 -0.18788,0.32592 -0.28425,0.48617 -0.0964,0.16025 -0.19408,0.31868 -0.29358,0.47515 -0.0995,0.15646 -0.20073,0.31082 -0.30332,0.46327 -0.1026,0.15245 -0.20699,0.30275 -0.31265,0.45096 -0.10566,0.14822 -0.21283,0.29447 -0.32151,0.43824 -0.05,0.0662 -0.10182,0.13088 -0.15566,0.19429 -0.0538,0.0634 -0.10942,0.12543 -0.16674,0.18625 -0.0573,0.0608 -0.11642,0.1206 -0.17695,0.17903 -0.0605,0.0584 -0.1228,0.11558 -0.18625,0.17182 -0.12692,0.11246 -0.25914,0.22047 -0.39602,0.32539 -0.13688,0.10491 -0.27806,0.20647 -0.42262,0.30545 -0.14456,0.099 -0.29262,0.19552 -0.44258,0.29017 -0.14995,0.0947 -0.30194,0.18763 -0.45499,0.27958 -0.30611,0.18389 -0.6163,0.3641 -0.92108,0.54684 -0.15239,0.0914 -0.30327,0.1831 -0.45189,0.2766 -0.14862,0.0935 -0.29469,0.18868 -0.43725,0.28594 -0.14257,0.0973 -0.28177,0.19689 -0.41597,0.29952 -0.0169,0.0129 -0.0321,0.0268 -0.0488,0.0399 z" />
    <path
       id="path20556"
       style="display:inline;fill:#000000;fill-opacity:1;stroke:none;stroke-width:0.222077px;stroke-linecap:butt;stroke-linejoin:miter;stroke-opacity:1"
       d="m 280.07484,109.57644 c -0.008,-0.002 -0.0148,-0.002 -0.0221,-0.004 -0.32461,-0.067 -0.64482,-0.13529 -0.95788,-0.20448 -0.31305,-0.0692 -0.61887,-0.13915 -0.91443,-0.21 -0.29555,-0.0708 -0.58067,-0.14268 -0.85278,-0.21467 -0.27211,-0.072 -0.53113,-0.14418 -0.77385,-0.21678 -0.25372,-0.0759 -0.50121,-0.14799 -0.74325,-0.21721 -0.24203,-0.0692 -0.47843,-0.13572 -0.70998,-0.19981 -0.46311,-0.12819 -0.90644,-0.24746 -1.33483,-0.36442 -0.42838,-0.11697 -0.84195,-0.23148 -1.24525,-0.34958 -0.20164,-0.059 -0.40061,-0.11907 -0.59779,-0.18072 -0.19717,-0.0617 -0.39278,-0.12512 -0.5867,-0.19091 -0.19391,-0.0658 -0.38643,-0.13385 -0.57829,-0.20533 -0.19185,-0.0715 -0.38285,-0.14612 -0.57384,-0.22485 -0.19099,-0.0787 -0.38162,-0.16153 -0.57295,-0.24902 -0.19133,-0.0875 -0.38319,-0.18005 -0.57607,-0.27789 -0.19287,-0.0978 -0.38708,-0.20083 -0.5827,-0.31054 -0.19563,-0.10969 -0.3929,-0.22602 -0.59247,-0.34914 -0.19958,-0.12312 -0.40149,-0.25307 -0.60622,-0.39115 -0.20473,-0.13808 -0.41198,-0.28407 -0.62306,-0.43866 -0.0815,-0.0597 -0.1622,-0.12299 -0.2417,-0.18921 -0.0795,-0.0662 -0.15802,-0.13547 -0.23547,-0.20787 -0.0775,-0.0724 -0.15386,-0.14784 -0.22928,-0.22613 -0.0754,-0.0783 -0.14971,-0.15925 -0.22306,-0.24309 -0.0734,-0.0838 -0.14559,-0.17058 -0.21685,-0.25963 -0.0712,-0.089 -0.1415,-0.18055 -0.21065,-0.27448 -0.0692,-0.0939 -0.1374,-0.19042 -0.20443,-0.28891 -0.067,-0.0985 -0.1329,-0.1989 -0.19779,-0.30163 -0.0649,-0.10272 -0.12885,-0.20773 -0.19158,-0.31436 -0.0627,-0.10662 -0.12437,-0.21476 -0.18492,-0.32495 -0.0606,-0.1102 -0.11992,-0.22214 -0.17827,-0.33558 -0.0584,-0.11344 -0.11549,-0.22854 -0.17163,-0.34491 -0.0561,-0.11636 -0.11151,-0.23401 -0.16541,-0.35296 -0.0539,-0.11895 -0.10666,-0.23939 -0.15832,-0.3606 -0.0517,-0.12122 -0.10183,-0.2434 -0.15121,-0.36655 -0.0494,-0.12314 -0.0979,-0.24687 -0.14501,-0.37163 -0.0942,-0.249511 -0.18382,-0.502031 -0.26875,-0.755991 -0.085,-0.25396 -0.16486,-0.50953 -0.24036,-0.76533 -0.0755,-0.25579 -0.14647,-0.51202 -0.21242,-0.76702 -0.066,-0.255 -0.12691,-0.50865 -0.18315,-0.76023 -0.0563,-0.25159 -0.10793,-0.50112 -0.15433,-0.74666 -0.0464,-0.24554 -0.0878,-0.4873 -0.12417,-0.72417 -0.0364,-0.23688 -0.0678,-0.4689 -0.094,-0.69448 -0.0263,-0.22558 -0.0475,-0.44463 -0.0634,-0.6563 -0.0108,-0.1436 -0.019,-0.2851 -0.0253,-0.42424 -0.006,-0.13913 -0.0105,-0.27597 -0.0125,-0.41108 -0.002,-0.13512 -0.002,-0.26852 4.6e-4,-0.40006 0.002,-0.13154 0.006,-0.26102 0.0119,-0.38945 0.006,-0.12843 0.0133,-0.25563 0.0226,-0.38139 0.009,-0.12576 0.0203,-0.25021 0.0328,-0.37375 0.0125,-0.12355 0.0263,-0.24603 0.0417,-0.36782 0.0154,-0.12178 0.0322,-0.24309 0.0501,-0.36357 0.0359,-0.24096 0.0769,-0.47938 0.1215,-0.71781 0.0446,-0.23843 0.093,-0.47659 0.14413,-0.71611 0.10222,-0.47905 0.215,-0.96402 0.32949,-1.46914 0.0572,-0.25256 0.11515,-0.51016 0.17207,-0.77466 0.0569,-0.2645 0.11287,-0.53575 0.16718,-0.81581 0.0543,-0.28006 0.1071,-0.56876 0.15656,-0.86799 0.0494,-0.29923 0.0956,-0.60918 0.13791,-0.9312 0.0212,-0.16101 0.0414,-0.32516 0.0603,-0.49254 0.019,-0.16739 0.0367,-0.33784 0.0532,-0.51206 0.0165,-0.17421 0.0316,-0.35219 0.0452,-0.53369 0.0137,-0.18149 0.0262,-0.36652 0.0368,-0.55575 0.0106,-0.18923 0.0193,-0.38252 0.0266,-0.57993 0.007,-0.19741 0.0132,-0.39892 0.0168,-0.60497 0.003,-0.20604 0.005,-0.41655 0.005,-0.63169 -2.3e-4,-0.21513 -0.003,-0.43502 -0.007,-0.65969 -0.003,-0.18741 -0.003,-0.37244 0.004,-0.5549 0.007,-0.18246 0.0191,-0.36216 0.0359,-0.54005 0.0168,-0.1779 0.0384,-0.35361 0.0648,-0.52733 0.0264,-0.17373 0.0576,-0.3455 0.0931,-0.51545 0.0355,-0.16995 0.0755,-0.33828 0.11974,-0.50484 0.0442,-0.16657 0.0925,-0.33151 0.14501,-0.49509 0.0524,-0.16358 0.10914,-0.32562 0.1694,-0.4866 0.0602,-0.16098 0.12397,-0.32104 0.19158,-0.47982 0.0676,-0.15877 0.13879,-0.31648 0.21331,-0.47345 0.0745,-0.15696 0.15229,-0.31323 0.23326,-0.46878 0.081,-0.15555 0.16534,-0.31044 0.25233,-0.46496 0.087,-0.15453 0.17664,-0.30853 0.26918,-0.46242 0.0925,-0.1539 0.18793,-0.30749 0.2856,-0.46115 0.0977,-0.15366 0.19788,-0.30733 0.30022,-0.46114 0.10234,-0.15382 0.20696,-0.30806 0.31353,-0.46242 0.10656,-0.15436 0.21516,-0.30882 0.32551,-0.46412 0.0843,-0.11857 0.17693,-0.23991 0.2776,-0.36357 0.10067,-0.12366 0.2091,-0.24963 0.32417,-0.37758 0.11508,-0.12794 0.23709,-0.25802 0.36453,-0.38945 0.12744,-0.13143 0.26045,-0.26425 0.39823,-0.39835 0.13779,-0.13411 0.28006,-0.2696 0.42617,-0.40558 0.14611,-0.13597 0.29594,-0.27235 0.44834,-0.40938 0.3048,-0.27409 0.62013,-0.54952 0.93793,-0.82303 0.6356,-0.54701 1.28112,-1.08653 1.87143,-1.59259 0.29515,-0.25303 0.57642,-0.49784 0.83593,-0.73096 0.12975,-0.11656 0.25426,-0.23029 0.37207,-0.34066 0.1178,-0.11038 0.22877,-0.21734 0.33259,-0.32073 0.19601,-0.19518 0.39785,-0.40083 0.60356,-0.61514 0.2057,-0.21431 0.41547,-0.43721 0.62794,-0.66648 0.21248,-0.22926 0.42759,-0.46504 0.64392,-0.70508 0.21631,-0.24004 0.43376,-0.48433 0.651,-0.73096 0.21724,-0.24664 0.43444,-0.49548 0.64968,-0.74454 0.21522,-0.24906 0.42829,-0.49851 0.63859,-0.74581 0.0323,-0.038 0.061,-0.0729 0.0931,-0.11073 0.0841,0.0553 0.16869,0.1097 0.25189,0.1663 0.14342,0.0976 0.28564,0.19728 0.42661,0.29867 0.14097,0.10138 0.2805,0.20468 0.41909,0.30969 0.13856,0.10501 0.27619,0.21184 0.41242,0.3203 0.13622,0.10846 0.27096,0.21831 0.40487,0.33006 0.0449,0.0374 0.0888,0.0763 0.13349,0.11412 -0.0126,0.0103 -0.0251,0.0202 -0.0377,0.0306 -0.2231,0.18334 -0.44653,0.36929 -0.66831,0.55702 -0.22178,0.18773 -0.44168,0.37714 -0.65855,0.56721 -0.21687,0.19006 -0.43067,0.38109 -0.63903,0.57145 -0.20836,0.19035 -0.4113,0.3803 -0.60755,0.5689 -0.19625,0.18859 -0.38576,0.37563 -0.56631,0.56042 -0.34009,0.3481 -0.78064,0.79145 -1.26209,1.28841 -0.24073,0.24847 -0.49184,0.5106 -0.74547,0.7806 -0.25363,0.26999 -0.50984,0.5479 -0.76142,0.82895 -0.12579,0.14053 -0.25048,0.28206 -0.37296,0.42339 -0.12247,0.14134 -0.2428,0.28257 -0.36009,0.42339 -0.11729,0.14083 -0.23167,0.28098 -0.34191,0.42 -0.11023,0.13901 -0.21621,0.27689 -0.31752,0.41278 -0.10131,0.1359 -0.19774,0.26987 -0.28825,0.40133 -0.0905,0.13147 -0.17536,0.26033 -0.25322,0.38606 -0.0778,0.12573 -0.14865,0.24828 -0.21197,0.36697 -0.0317,0.0593 -0.0614,0.11787 -0.0891,0.17521 -0.0277,0.0573 -0.0533,0.11367 -0.0767,0.16884 -0.0202,0.0474 -0.0389,0.0983 -0.0559,0.1523 -0.017,0.0541 -0.0324,0.11104 -0.0466,0.1714 -0.0141,0.0603 -0.0268,0.12376 -0.0381,0.19005 -0.0113,0.0663 -0.0214,0.13557 -0.0301,0.20746 -0.009,0.0719 -0.0162,0.14646 -0.0226,0.22357 -0.006,0.0771 -0.0118,0.15686 -0.016,0.23885 -0.009,0.16397 -0.0123,0.33753 -0.0129,0.51884 -6.7e-4,0.18131 0.003,0.37057 0.008,0.56636 0.006,0.19578 0.014,0.39799 0.0244,0.60538 0.0105,0.2074 0.023,0.4198 0.0368,0.63594 0.0137,0.21613 0.0288,0.43598 0.0444,0.65799 0.0312,0.44403 0.0645,0.89704 0.0945,1.34738 0.0149,0.22517 0.0293,0.44954 0.0417,0.67199 0.0125,0.22246 0.0231,0.44282 0.0315,0.65969 0.009,0.21687 0.0148,0.43006 0.0178,0.63848 0.003,0.20842 0.003,0.4121 -0.002,0.60921 -0.004,0.19711 -0.0116,0.38767 -0.0239,0.5706 -0.006,0.0915 -0.0136,0.18116 -0.0221,0.26854 -0.009,0.0874 -0.0182,0.17245 -0.0293,0.25539 -0.01,0.0709 -0.0209,0.14415 -0.0337,0.21933 -0.0128,0.0752 -0.0271,0.15231 -0.043,0.23163 -0.0317,0.15866 -0.0696,0.32541 -0.1122,0.49976 -0.0426,0.17434 -0.09,0.35629 -0.14147,0.54514 -0.0514,0.18886 -0.10712,0.38497 -0.16542,0.58715 -0.11659,0.40435 -0.24487,0.83405 -0.37694,1.28459 -0.0661,0.22527 -0.13263,0.45562 -0.19956,0.69066 -0.0669,0.23504 -0.13416,0.4746 -0.2,0.71824 -0.0658,0.24363 -0.1306,0.49137 -0.19335,0.74241 -0.0627,0.25104 -0.12324,0.50552 -0.18094,0.76278 -0.0577,0.25726 -0.11255,0.51745 -0.16319,0.77975 -0.0506,0.2623 -0.0972,0.52675 -0.1388,0.7929 -0.0208,0.13308 -0.0403,0.26667 -0.0585,0.40048 -0.0182,0.13382 -0.0348,0.26777 -0.0501,0.40218 -0.0153,0.13441 -0.0291,0.26902 -0.0413,0.40388 -0.0122,0.13485 -0.0227,0.26999 -0.0315,0.40514 -0.009,0.13516 -0.0161,0.27027 -0.0213,0.40557 -0.005,0.13531 -0.009,0.27069 -0.01,0.406 -0.002,0.1353 -6.8e-4,0.27084 0.003,0.406 0.003,0.13515 0.008,0.26985 0.0151,0.40472 0.0109,0.2035 0.0228,0.40758 0.0364,0.61132 0.0136,0.20375 0.0287,0.40732 0.0457,0.61091 0.0169,0.20358 0.0354,0.40704 0.0563,0.61005 0.0209,0.20302 0.044,0.40546 0.0696,0.60751 0.0256,0.20205 0.0538,0.40386 0.0847,0.60454 0.0309,0.20068 0.0642,0.40054 0.10111,0.59945 0.0369,0.19891 0.0771,0.39677 0.12062,0.59351 0.0435,0.19673 0.0906,0.39213 0.14147,0.58629 0.0508,0.19416 0.10527,0.38706 0.16408,0.57824 0.0588,0.19118 0.12191,0.38068 0.18936,0.56848 0.0337,0.0939 0.0687,0.18744 0.10466,0.28042 0.036,0.093 0.0729,0.18544 0.11131,0.27745 0.0384,0.092 0.078,0.1835 0.11884,0.27448 0.0409,0.091 0.0831,0.1816 0.12638,0.27152 0.0433,0.0899 0.088,0.17932 0.13394,0.26811 0.046,0.0888 0.0932,0.176681 0.1419,0.264301 0.0487,0.0876 0.0985,0.17494 0.14991,0.26134 0.0514,0.0864 0.10446,0.17195 0.15875,0.25708 0.0543,0.0851 0.10995,0.16989 0.16719,0.2537 0.0572,0.0838 0.11579,0.16659 0.17606,0.24903 0.0602,0.0824 0.122,0.1642 0.18536,0.24521 0.0633,0.081 0.12856,0.16143 0.19513,0.24096 0.13175,0.15743 0.26333,0.31005 0.39468,0.45818 0.13135,0.14812 0.26228,0.2916 0.3938,0.43101 0.13151,0.13942 0.26332,0.27469 0.39557,0.406 0.13225,0.1313 0.26513,0.25887 0.39867,0.38266 0.13356,0.12379 0.26769,0.24374 0.40311,0.36061 0.13542,0.11687 0.2719,0.23054 0.40976,0.34108 0.13786,0.11054 0.27732,0.21804 0.41819,0.32285 0.14087,0.1048 0.2835,0.20705 0.42795,0.30672 0.14443,0.0997 0.29043,0.19675 0.43902,0.29188 0.14859,0.0951 0.29948,0.1884 0.45278,0.27957 0.1533,0.0912 0.30927,0.1803 0.46786,0.26812 0.15858,0.0878 0.31982,0.17415 0.48425,0.25921 0.16444,0.085 0.33204,0.16868 0.50289,0.25157 0.17086,0.0829 0.34501,0.16517 0.52285,0.24648 0.17784,0.0813 0.35917,0.1619 0.54459,0.24224 0.18539,0.0804 0.37499,0.16016 0.56852,0.24012 0.35259,0.14568 0.77682,0.31545 1.24968,0.50103 0.40385,0.15849 0.85593,0.33271 1.31576,0.50909 -0.11626,0.0904 -0.23034,0.18205 -0.33837,0.27787 -0.0618,0.0548 -0.12224,0.11072 -0.18093,0.16757 -0.0587,0.0568 -0.11541,0.11484 -0.17074,0.17394 -0.0554,0.0591 -0.10887,0.11918 -0.16052,0.18072 -0.0517,0.0616 -0.10175,0.12459 -0.14946,0.18879 -0.0477,0.0642 -0.0931,0.12979 -0.13658,0.19685 -0.0435,0.0671 -0.0848,0.13522 -0.12373,0.20532 -0.039,0.0701 -0.0759,0.14215 -0.10998,0.21552 -0.0201,0.0431 -0.0375,0.0881 -0.0559,0.13236 z" />
    <path
       id="path9467"
       style="display:inline;fill:#1a4c2e;fill-opacity:1;stroke:none;stroke-width:0.222077px;stroke-linecap:butt;stroke-linejoin:miter;stroke-opacity:1"
       d="m 263.34957,53.163829 c 2.01926,-0.009 3.93908,0.12466 5.6422,0.43315 5.84381,1.05849 13.13334,6.24654 20.4792,17.95884 7.34587,11.7123 1.63348,33.898841 -1.78095,36.840391 -1.62992,1.4042 -3.84291,2.11388 -5.6391,2.69731 -0.58491,0.18999 -1.299,0.3301 -2.07807,0.44121 -0.004,-0.0227 -0.0106,-0.0456 -0.0147,-0.0683 -0.0144,-0.0812 -0.0269,-0.1619 -0.0377,-0.24225 -0.0107,-0.0804 -0.0198,-0.16053 -0.0266,-0.23969 -0.007,-0.0791 -0.0113,-0.15739 -0.0137,-0.23502 -0.003,-0.0777 -0.003,-0.15458 0,-0.23037 0.003,-0.0758 0.007,-0.15041 0.0142,-0.224 0.008,-0.0735 0.0174,-0.14615 0.0301,-0.2172 0.0128,-0.0711 0.0285,-0.14055 0.047,-0.20873 0.0185,-0.0682 0.0397,-0.13484 0.0643,-0.19982 0.0291,-0.0768 0.0608,-0.1519 0.0949,-0.22527 0.0342,-0.0734 0.0711,-0.1454 0.10997,-0.21551 0.039,-0.0701 0.0802,-0.13828 0.12373,-0.20533 0.0435,-0.0671 0.0889,-0.13264 0.13658,-0.19685 0.0477,-0.0642 0.0978,-0.12724 0.14946,-0.18879 0.0517,-0.0616 0.10521,-0.12162 0.16053,-0.18072 0.0554,-0.0591 0.11204,-0.11709 0.17074,-0.17394 0.0587,-0.0568 0.11914,-0.11277 0.18093,-0.16758 0.12356,-0.10959 0.25293,-0.21513 0.38714,-0.31774 0.13421,-0.10263 0.27342,-0.20226 0.41597,-0.29952 0.14256,-0.0973 0.28864,-0.19242 0.43726,-0.28594 0.14861,-0.0935 0.2995,-0.18522 0.45189,-0.2766 0.30477,-0.18274 0.61496,-0.36295 0.92107,-0.54684 0.15305,-0.0919 0.30504,-0.18492 0.455,-0.27958 0.14995,-0.0946 0.29801,-0.1912 0.44257,-0.29017 0.14457,-0.099 0.28574,-0.20054 0.42263,-0.30545 0.13688,-0.10492 0.2691,-0.21292 0.39601,-0.32539 0.0634,-0.0562 0.12572,-0.11339 0.18625,-0.17182 0.0605,-0.0585 0.11963,-0.11821 0.17696,-0.17903 0.0573,-0.0608 0.11291,-0.12283 0.16674,-0.18624 0.0538,-0.0634 0.1056,-0.12809 0.15566,-0.1943 0.10868,-0.14376 0.21585,-0.29002 0.32151,-0.43824 0.10565,-0.14821 0.21004,-0.29851 0.31264,-0.45096 0.10259,-0.15245 0.20382,-0.30681 0.30332,-0.46327 0.0995,-0.15646 0.19721,-0.3149 0.29358,-0.47515 0.0964,-0.16025 0.19105,-0.32233 0.28426,-0.48616 0.0932,-0.16384 0.18493,-0.3296 0.27495,-0.49679 0.09,-0.16718 0.17841,-0.3358 0.26519,-0.50611 0.0868,-0.17032 0.17193,-0.34222 0.25543,-0.51545 0.0835,-0.17324 0.16547,-0.34801 0.24568,-0.52394 0.0802,-0.175931 0.15862,-0.353161 0.23548,-0.531571 0.0769,-0.1784 0.15223,-0.35769 0.22573,-0.53836 0.0735,-0.18066 0.14543,-0.36244 0.21552,-0.54514 0.0701,-0.1827 0.13823,-0.36657 0.20488,-0.55109 0.0667,-0.18451 0.13152,-0.36964 0.19468,-0.55575 0.0632,-0.18611 0.12482,-0.37335 0.18448,-0.56084 0.0596,-0.18749 0.11729,-0.37559 0.1734,-0.56424 0.0561,-0.18865 0.11067,-0.37761 0.1632,-0.5672 0.0525,-0.18959 0.10319,-0.37987 0.1521,-0.57018 0.0489,-0.19031 0.0962,-0.38064 0.14147,-0.57145 0.0452,-0.19081 0.0884,-0.38205 0.12994,-0.57314 0.0415,-0.1911 0.0814,-0.38199 0.11929,-0.57315 0.0378,-0.19115 0.0736,-0.38257 0.10776,-0.57357 0.0341,-0.191 0.0663,-0.38168 0.0967,-0.57229 0.0303,-0.19063 0.0587,-0.38101 0.0851,-0.57103 0.0265,-0.19002 0.051,-0.3797 0.0736,-0.5689 0.0226,-0.18921 0.0433,-0.37777 0.062,-0.56594 0.0187,-0.18817 0.0354,-0.37605 0.0501,-0.56296 0.0148,-0.18692 0.0278,-0.37328 0.0386,-0.55872 0.0108,-0.18544 0.0197,-0.36989 0.0266,-0.55363 0.007,-0.18375 0.0114,-0.36671 0.0142,-0.54854 0.003,-0.18184 0.003,-0.36248 0.003,-0.54218 -0.002,-0.1797 -0.004,-0.35846 -0.01,-0.53581 -0.006,-0.20288 -0.0144,-0.40451 -0.0244,-0.60539 -0.01,-0.20088 -0.0221,-0.40093 -0.0359,-0.59987 -0.0138,-0.19894 -0.0294,-0.39687 -0.047,-0.59393 -0.0177,-0.19706 -0.0375,-0.39319 -0.059,-0.58842 -0.0214,-0.19524 -0.0448,-0.38944 -0.07,-0.5829 -0.0252,-0.19347 -0.0522,-0.38607 -0.0812,-0.57782 -0.029,-0.19174 -0.0599,-0.38263 -0.0927,-0.57272 -0.0328,-0.19008 -0.0677,-0.37957 -0.10422,-0.56805 -0.0365,-0.18848 -0.0747,-0.37604 -0.11485,-0.56297 -0.0403,-0.18693 -0.0825,-0.37328 -0.12639,-0.55872 -0.0439,-0.18543 -0.0899,-0.37006 -0.13748,-0.55405 -0.0476,-0.184 -0.0968,-0.3672 -0.14812,-0.54982 -0.0513,-0.18261 -0.10427,-0.3647 -0.15919,-0.54599 -0.0549,-0.18129 -0.11174,-0.36174 -0.1703,-0.54175 -0.0586,-0.18001 -0.11919,-0.35956 -0.18138,-0.53836 -0.0622,-0.17879 -0.12579,-0.3569 -0.19157,-0.53454 -0.0658,-0.17763 -0.13374,-0.35462 -0.20311,-0.53114 -0.0693,-0.17653 -0.14036,-0.3527 -0.2133,-0.52818 -0.0729,-0.17548 -0.14746,-0.3503 -0.22396,-0.52478 -0.0765,-0.17448 -0.155,-0.3487 -0.23503,-0.52224 -0.0801,-0.17354 -0.16168,-0.34661 -0.24523,-0.51927 -0.0836,-0.17266 -0.16883,-0.34489 -0.25589,-0.51672 -0.17411,-0.34365 -0.35521,-0.68556 -0.54324,-1.02623 -0.18804,-0.34067 -0.38311,-0.68004 -0.58493,-1.01817 -0.20181,-0.33813 -0.41069,-0.67493 -0.62617,-1.01096 -0.21548,-0.33604 -0.43752,-0.67107 -0.66652,-1.00545 -0.22902,-0.33437 -0.46495,-0.66803 -0.70734,-1.0012 -0.20558,-0.28256 -0.41394,-0.56474 -0.62529,-0.8455 -0.21134,-0.28077 -0.42549,-0.56028 -0.64302,-0.83787 -0.21753,-0.2776 -0.4384,-0.55337 -0.66254,-0.82642 -0.22413,-0.27305 -0.45178,-0.54358 -0.68293,-0.81072 -0.23115,-0.26713 -0.46564,-0.53094 -0.70422,-0.79078 -0.23858,-0.25984 -0.4813,-0.51542 -0.72772,-0.7666 -0.24643,-0.25117 -0.49655,-0.49788 -0.75123,-0.73902 -0.12734,-0.12056 -0.25589,-0.23983 -0.38537,-0.35763 -0.12949,-0.1178 -0.25991,-0.23387 -0.39158,-0.34872 -0.13169,-0.11486 -0.26475,-0.22849 -0.39867,-0.34024 -0.13393,-0.11175 -0.26867,-0.2216 -0.40489,-0.33006 -0.13622,-0.10846 -0.27386,-0.21529 -0.41242,-0.3203 -0.13859,-0.10501 -0.27811,-0.20831 -0.41908,-0.30969 -0.14098,-0.10139 -0.2832,-0.20108 -0.42662,-0.29867 -0.14342,-0.0976 -0.28822,-0.19317 -0.43415,-0.28678 -0.14593,-0.0936 -0.2932,-0.18501 -0.44169,-0.27449 -0.14849,-0.0895 -0.29813,-0.17702 -0.44923,-0.26217 -0.15109,-0.0852 -0.30346,-0.16794 -0.45722,-0.24861 -0.15375,-0.0807 -0.30916,-0.15901 -0.46563,-0.23502 -0.15647,-0.076 -0.31395,-0.14985 -0.47318,-0.22103 -0.15923,-0.0712 -0.32,-0.14 -0.48204,-0.20618 -0.16205,-0.0662 -0.32556,-0.1299 -0.49047,-0.19091 -0.16491,-0.061 -0.33107,-0.11912 -0.4989,-0.17479 -0.16784,-0.0557 -0.33741,-0.10851 -0.50821,-0.15866 -0.17081,-0.0502 -0.34281,-0.0977 -0.51663,-0.14212 -0.1785,-0.0456 -0.36256,-0.0882 -0.55123,-0.12812 -0.18868,-0.0399 -0.38207,-0.0771 -0.58005,-0.11157 -0.19798,-0.0344 -0.40069,-0.0662 -0.60712,-0.0954 -0.20642,-0.0293 -0.41661,-0.0562 -0.6306,-0.0806 -0.21399,-0.0244 -0.43166,-0.0463 -0.65234,-0.0662 -0.22068,-0.0199 -0.44445,-0.0379 -0.67096,-0.0534 -0.22651,-0.0156 -0.45546,-0.0291 -0.68693,-0.0407 -0.23146,-0.0116 -0.46556,-0.0213 -0.70111,-0.0293 -0.23555,-0.008 -0.47256,-0.0141 -0.71132,-0.0187 -0.23876,-0.005 -0.47908,-0.008 -0.72019,-0.009 -0.48221,-0.003 -0.96819,-2.2e-4 -1.45456,0.007 -0.48636,0.007 -0.97323,0.0197 -1.45679,0.0352 -0.48355,0.0155 -0.96393,0.0343 -1.43771,0.0556 -0.47377,0.0213 -0.94077,0.045 -1.3978,0.0696 -0.45703,0.0246 -0.90416,0.05 -1.33749,0.0755 -0.86665,0.051 -1.67886,0.10127 -2.40889,0.14169 -0.36502,0.0202 -0.70932,0.0382 -1.02974,0.0522 -0.32042,0.014 -0.61675,0.0243 -0.8856,0.0297 -0.26885,0.005 -0.51031,0.006 -0.72063,0 -0.10515,-0.003 -0.20257,-0.007 -0.29179,-0.0132 -0.0892,-0.006 -0.17017,-0.0138 -0.24258,-0.0233 -0.0721,-0.01 -0.14722,-0.0233 -0.22484,-0.0412 -0.0777,-0.0179 -0.15772,-0.0396 -0.24036,-0.0653 -0.0826,-0.0258 -0.16784,-0.0556 -0.25499,-0.0887 -0.0871,-0.0331 -0.17626,-0.0696 -0.26741,-0.10945 -0.0911,-0.0398 -0.18428,-0.083 -0.27893,-0.12897 -0.0947,-0.046 -0.19105,-0.0948 -0.2887,-0.14636 -0.19531,-0.1032 -0.39613,-0.21711 -0.60045,-0.33939 -0.20432,-0.12229 -0.41196,-0.25302 -0.62129,-0.38988 -0.20933,-0.13686 -0.42028,-0.27985 -0.63061,-0.42678 -0.21033,-0.14694 -0.42017,-0.29761 -0.6275,-0.45012 -0.20733,-0.15251 -0.41211,-0.30672 -0.61242,-0.4603 -0.20033,-0.15357 -0.39609,-0.30676 -0.58539,-0.4569 -0.1893,-0.15014 -0.37208,-0.29731 -0.54634,-0.43951 -0.0825,-0.0673 -0.14105,-0.11847 -0.21952,-0.18327 4.61257,-1.46591 10.76836,-2.52487 16.20332,-2.54925 z" />
  </g>
  <g
     inkscape:groupmode="layer"
     id="layer3"
     inkscape:label="Layer 3"
     style="display:inline"
     transform="translate(-219.16167,-52.413401)">
    <path
       style="opacity:1;fill:none;fill-opacity:1;stroke:#000000;stroke-width:0.7;stroke-linecap:round;stroke-dasharray:none;stroke-dashoffset:0;stroke-opacity:1"
       d="m 224.21913,88.680053 c -0.056,-0.139916 15.35155,-2.698924 22.15459,-6.379496"
       id="path2"
       sodipodi:nodetypes="cc" />
    <path
       id="path10311"
       style="display:inline;fill:#fefeff;fill-opacity:1;stroke:none;stroke-width:0.222426;stroke-linecap:butt;stroke-linejoin:miter;stroke-miterlimit:4;stroke-dasharray:none;stroke-opacity:1"
       d="m 247.14626,55.713199 c 0.0784,0.0648 0.13701,0.11595 0.21952,0.18327 0.17427,0.1422 0.35705,0.28937 0.54635,0.43951 0.18929,0.15014 0.38505,0.30333 0.58538,0.4569 0.20031,0.15358 0.4051,0.30779 0.61243,0.4603 0.20732,0.15251 0.41716,0.30318 0.6275,0.45012 0.21033,0.14693 0.42127,0.28992 0.6306,0.42678 0.20933,0.13686 0.41697,0.26759 0.6213,0.38988 0.20432,0.12228 0.40514,0.23618 0.60044,0.33939 0.0977,0.0516 0.19405,0.10037 0.2887,0.14636 0.0947,0.046 0.18779,0.0892 0.27894,0.12897 0.0911,0.0398 0.18027,0.0764 0.26741,0.10945 0.0871,0.0331 0.17236,0.0629 0.25499,0.0887 0.0826,0.0258 0.16273,0.0474 0.24036,0.0653 0.0777,0.0179 0.15272,0.0317 0.22484,0.0411 0.0724,0.01 0.15335,0.0173 0.24257,0.0233 0.0892,0.006 0.18664,0.0103 0.2918,0.0131 0.21032,0.006 0.45178,0.005 0.72063,0 0.26885,-0.005 0.56518,-0.0157 0.8856,-0.0297 0.32041,-0.014 0.66472,-0.032 1.02974,-0.0522 0.73003,-0.0404 1.54224,-0.0907 2.40889,-0.14169 0.43333,-0.0255 0.88046,-0.051 1.33749,-0.0755 0.45703,-0.0246 0.92403,-0.0483 1.3978,-0.0696 0.47378,-0.0212 0.95415,-0.04 1.43771,-0.0556 0.48356,-0.0155 0.97042,-0.0278 1.45679,-0.0352 0.48637,-0.007 0.97235,-0.0103 1.45456,-0.007 0.24111,0.002 0.48143,0.005 0.72018,0.009 0.23877,0.005 0.47577,0.0107 0.71132,0.0187 0.23555,0.008 0.46965,0.0176 0.70112,0.0293 0.23146,0.0116 0.46042,0.0251 0.68693,0.0407 0.2265,0.0156 0.45028,0.0336 0.67096,0.0535 0.22068,0.0199 0.43835,0.0418 0.65233,0.0662 0.21399,0.0244 0.42419,0.0513 0.63061,0.0806 0.20643,0.0293 0.40914,0.061 0.60711,0.0954 0.19799,0.0344 0.39138,0.0717 0.58006,0.11157 0.18867,0.0399 0.37273,0.0825 0.55122,0.12812 0.17382,0.0445 0.34583,0.092 0.51664,0.14212 0.1708,0.0502 0.34037,0.103 0.50821,0.15866 0.16783,0.0557 0.33398,0.11378 0.4989,0.17479 0.16491,0.061 0.32842,0.12473 0.49047,0.19091 0.16204,0.0662 0.32281,0.13499 0.48204,0.20618 0.15923,0.0712 0.31671,0.14501 0.47318,0.22103 0.15647,0.076 0.31188,0.15435 0.46563,0.23502 0.15376,0.0807 0.30612,0.16345 0.45722,0.24861 0.1511,0.0852 0.30074,0.1727 0.44923,0.26218 0.14848,0.0895 0.29576,0.18086 0.44169,0.27448 0.0613,0.0393 0.12139,0.0805 0.18226,0.12048 -0.0321,0.0379 -0.0608,0.0728 -0.0931,0.11073 -0.2103,0.2473 -0.42337,0.49675 -0.6386,0.74581 -0.21523,0.24906 -0.43243,0.4979 -0.64968,0.74454 -0.21723,0.24663 -0.43468,0.49092 -0.651,0.73096 -0.21632,0.24004 -0.43143,0.47582 -0.64391,0.70508 -0.21247,0.22926 -0.42224,0.45217 -0.62795,0.66648 -0.2057,0.21431 -0.40754,0.41996 -0.60355,0.61514 -0.10382,0.10339 -0.21479,0.21035 -0.33259,0.32073 -0.11781,0.11037 -0.24232,0.2241 -0.37207,0.34066 -0.25951,0.23312 -0.54078,0.47793 -0.83593,0.73096 -0.59031,0.50606 -1.23583,1.04558 -1.87143,1.59259 -0.3178,0.27351 -0.63313,0.54894 -0.93793,0.82302 -0.1524,0.13704 -0.30224,0.27342 -0.44834,0.40939 -0.14611,0.13598 -0.28838,0.27147 -0.42617,0.40558 -0.13778,0.1341 -0.27079,0.26692 -0.39823,0.39835 -0.12745,0.13143 -0.24946,0.26151 -0.36453,0.38945 -0.11507,0.12795 -0.2235,0.25392 -0.32417,0.37758 -0.10067,0.12366 -0.19337,0.245 -0.27761,0.36357 -0.11034,0.1553 -0.21894,0.30975 -0.3255,0.46412 -0.10657,0.15436 -0.21119,0.3086 -0.31353,0.46241 -0.10234,0.15381 -0.20256,0.30749 -0.30022,0.46115 -0.0977,0.15366 -0.19305,0.30725 -0.2856,0.46115 -0.0926,0.15389 -0.18219,0.30789 -0.26918,0.46242 -0.087,0.15452 -0.17135,0.30941 -0.25233,0.46496 -0.081,0.15555 -0.15875,0.31182 -0.23326,0.46878 -0.0745,0.15697 -0.1457,0.31468 -0.21331,0.47345 -0.0676,0.15878 -0.13132,0.31884 -0.19158,0.47982 -0.0602,0.16098 -0.11693,0.32302 -0.1694,0.4866 -0.0524,0.16358 -0.10079,0.32852 -0.14501,0.49508 -0.0442,0.16657 -0.0842,0.3349 -0.11974,0.50485 -0.0355,0.16995 -0.0668,0.34172 -0.0931,0.51545 -0.0264,0.17372 -0.048,0.34943 -0.0647,0.52733 -0.0168,0.17789 -0.0292,0.35759 -0.036,0.54005 -0.007,0.18246 -0.008,0.36749 -0.004,0.5549 0.004,0.22467 0.006,0.44456 0.007,0.65969 2.2e-4,0.21513 -8.6e-4,0.42565 -0.005,0.63169 -0.003,0.20605 -0.01,0.40756 -0.0168,0.60497 -0.007,0.19741 -0.016,0.3907 -0.0266,0.57993 -0.0106,0.18923 -0.0231,0.37426 -0.0368,0.55575 -0.0137,0.1815 -0.0288,0.35948 -0.0452,0.53369 -0.0165,0.17422 -0.0342,0.34467 -0.0532,0.51206 -0.019,0.16738 -0.0391,0.33153 -0.0603,0.49254 -0.0423,0.32202 -0.0885,0.63197 -0.13792,0.9312 -0.0494,0.29923 -0.10222,0.58793 -0.15655,0.86799 -0.0543,0.28006 -0.11027,0.55131 -0.16718,0.81581 -0.0569,0.2645 -0.11482,0.5221 -0.17207,0.77466 -0.11449,0.50512 -0.22727,0.99009 -0.3295,1.46914 -0.0511,0.23952 -0.0995,0.47768 -0.14412,0.71611 -0.0446,0.23843 -0.0856,0.47685 -0.12151,0.71781 -0.0179,0.12048 -0.0348,0.24178 -0.0501,0.36357 -0.0154,0.12179 -0.0292,0.24427 -0.0417,0.36782 -0.0125,0.12354 -0.0235,0.24799 -0.0328,0.37375 -0.009,0.12576 -0.0168,0.25296 -0.0226,0.38139 -0.006,0.12842 -0.01,0.25791 -0.0119,0.38945 -0.002,0.13154 -0.003,0.26494 -4.5e-4,0.40006 0.002,0.13511 0.006,0.27195 0.0124,0.41108 0.006,0.13914 0.0144,0.28063 0.0253,0.42424 0.016,0.21167 0.0372,0.43072 0.0634,0.6563 0.0263,0.22558 0.0576,0.4576 0.094,0.69448 0.0364,0.23687 0.0778,0.47863 0.12417,0.72417 0.0464,0.24554 0.0981,0.49507 0.15433,0.74666 0.0562,0.25158 0.11719,0.50523 0.18315,0.76023 0.066,0.255 0.1369,0.51123 0.21242,0.76702 0.0755,0.2558 0.15543,0.51137 0.24036,0.76533 0.0849,0.25396 0.17456,0.50648 0.26875,0.755991 0.0471,0.12476 0.0956,0.24849 0.14501,0.37163 0.0493,0.12315 0.0996,0.24533 0.15121,0.36655 0.0517,0.12121 0.10441,0.24165 0.15832,0.3606 0.0539,0.11895 0.10928,0.23661 0.16541,0.35296 0.0561,0.11637 0.11327,0.23147 0.17163,0.34491 0.0584,0.11344 0.11772,0.22538 0.17827,0.33557 0.0605,0.1102 0.12219,0.21834 0.18492,0.32496 0.0627,0.10662 0.12669,0.21164 0.19158,0.31436 0.0649,0.10272 0.13076,0.20314 0.19779,0.30163 0.067,0.0985 0.13528,0.19497 0.20443,0.28891 0.0692,0.0939 0.13939,0.18543 0.21065,0.27448 0.0712,0.089 0.14351,0.1758 0.21685,0.25964 0.0734,0.0838 0.14765,0.16479 0.22306,0.24308 0.0754,0.0783 0.15181,0.15371 0.22928,0.22612 0.0775,0.0724 0.15598,0.14166 0.23547,0.20787 0.0795,0.0663 0.16019,0.12953 0.24169,0.18922 0.21109,0.15458 0.41834,0.30058 0.62307,0.43866 0.20473,0.13808 0.40664,0.26804 0.60622,0.39115 0.19957,0.12311 0.39684,0.23944 0.59246,0.34915 0.19563,0.10969 0.38984,0.2127 0.58271,0.31054 0.19288,0.0978 0.38474,0.19037 0.57607,0.27787 0.19133,0.0875 0.38196,0.17031 0.57295,0.24903 0.19099,0.0787 0.38199,0.15335 0.57384,0.22484 0.19186,0.0715 0.38438,0.13954 0.57829,0.20533 0.19391,0.0658 0.38953,0.12927 0.5867,0.19091 0.19718,0.0617 0.39615,0.12167 0.59779,0.18073 0.4033,0.1181 0.81687,0.2326 1.24525,0.34957 0.42839,0.11696 0.87172,0.23622 1.33483,0.36442 0.23155,0.0641 0.46795,0.13059 0.70998,0.19981 0.24205,0.0692 0.48953,0.14132 0.74325,0.21721 0.24272,0.0726 0.50174,0.1448 0.77384,0.21679 0.27212,0.072 0.55724,0.14381 0.85279,0.21466 0.29556,0.0708 0.60138,0.14081 0.91443,0.21 0.31306,0.0692 0.63327,0.13748 0.95788,0.20448 0.008,0.002 0.0148,0.002 0.0221,0.004 -0.0129,0.0311 -0.027,0.0612 -0.039,0.0929 -0.0246,0.0649 -0.0458,0.13163 -0.0643,0.19981 -0.0185,0.0682 -0.0342,0.13767 -0.047,0.20873 -0.0128,0.0711 -0.0228,0.14362 -0.0301,0.21721 -0.008,0.0736 -0.0118,0.14821 -0.0142,0.22399 -0.003,0.0758 -0.003,0.15273 0,0.23036 0.003,0.0777 0.007,0.15587 0.0137,0.23503 0.007,0.0791 0.0158,0.15936 0.0266,0.2397 0.0108,0.0804 0.0232,0.16105 0.0377,0.24224 0.004,0.0227 0.0103,0.0456 0.0146,0.0683 -6.47114,0.92283 -18.61926,-0.65952 -19.81135,-1.29308 -1.33561,-0.70983 -4.37769,-7.09816 -3.78408,-10.07945 0.5936,-2.981321 1.03868,-4.542931 0.29668,-6.885391 -0.74201,-2.34246 -3.4131,-4.96911 -5.86172,-5.18206 -1.1002,-0.0957 -2.67085,-0.20436 -4.17479,-0.30291 0.009,-0.0468 0.0173,-0.0943 0.0244,-0.14042 0.0137,-0.0902 0.025,-0.17899 0.0341,-0.26642 0.0135,-0.12921 0.0248,-0.26108 0.0337,-0.39539 0.009,-0.13432 0.0155,-0.27114 0.0199,-0.40982 0.004,-0.13868 0.007,-0.27939 0.007,-0.42169 1.1e-4,-0.1423 -0.002,-0.28626 -0.006,-0.43145 -0.004,-0.14519 -0.0104,-0.29133 -0.0186,-0.43866 -0.009,-0.14734 -0.0184,-0.29587 -0.0306,-0.4446 -0.0123,-0.14874 -0.0269,-0.29775 -0.043,-0.44715 -0.0161,-0.1494 -0.0342,-0.2991 -0.0541,-0.44842 -0.02,-0.14932 -0.042,-0.29823 -0.0657,-0.44672 -0.0237,-0.1485 -0.049,-0.29639 -0.0763,-0.44333 -0.0273,-0.14694 -0.0562,-0.29318 -0.0869,-0.43782 -0.0307,-0.14463 -0.0631,-0.28773 -0.0971,-0.42932 -0.0341,-0.14159 -0.0699,-0.28135 -0.10732,-0.41915 -0.0373,-0.1378 -0.0761,-0.27357 -0.11663,-0.40685 -0.0405,-0.13327 -0.0824,-0.26441 -0.12594,-0.39242 -0.0435,-0.128 -0.0888,-0.25302 -0.13526,-0.37502 -0.0461,-0.12108 -0.0915,-0.23371 -0.13658,-0.33897 -0.0451,-0.10526 -0.0898,-0.20294 -0.13437,-0.29442 -0.0445,-0.0915 -0.0891,-0.17693 -0.13349,-0.25666 -0.0444,-0.0797 -0.0885,-0.15398 -0.13304,-0.224 -0.0445,-0.07 -0.0896,-0.13577 -0.13481,-0.19812 -0.0451,-0.0623 -0.0908,-0.12105 -0.13703,-0.17776 -0.0463,-0.0567 -0.0929,-0.11149 -0.14058,-0.1646 -0.0476,-0.0531 -0.096,-0.10457 -0.14545,-0.15612 -0.0989,-0.1031 -0.20178,-0.20529 -0.31043,-0.31436 -0.0543,-0.0545 -0.11027,-0.11103 -0.16763,-0.17012 -0.0573,-0.0591 -0.11615,-0.12057 -0.17694,-0.18624 -0.0608,-0.0657 -0.12339,-0.13528 -0.18803,-0.20957 -0.0646,-0.0743 -0.13157,-0.15347 -0.20045,-0.23843 -0.0688,-0.0849 -0.13978,-0.17555 -0.2133,-0.2732 -0.0736,-0.0976 -0.14938,-0.2024 -0.22795,-0.31479 -0.0215,-0.0308 -0.0426,-0.0627 -0.0634,-0.0954 -0.0209,-0.0328 -0.0415,-0.0664 -0.0616,-0.10097 -0.0201,-0.0346 -0.0396,-0.0701 -0.059,-0.10648 -0.0194,-0.0364 -0.0385,-0.0739 -0.0572,-0.112 -0.0373,-0.0762 -0.0735,-0.1558 -0.10821,-0.23842 -0.0347,-0.0826 -0.068,-0.16819 -0.10022,-0.25667 -0.0322,-0.0885 -0.0629,-0.17945 -0.0927,-0.2732 -0.0298,-0.0937 -0.0585,-0.19003 -0.086,-0.28849 -0.0275,-0.0985 -0.0541,-0.19945 -0.0794,-0.30206 -0.0253,-0.10259 -0.0494,-0.20691 -0.0727,-0.31308 -0.0233,-0.10617 -0.0455,-0.2141 -0.0669,-0.32327 -0.0215,-0.10918 -0.042,-0.21972 -0.0616,-0.33133 -0.0196,-0.11161 -0.0387,-0.22422 -0.0567,-0.3377 -0.018,-0.11347 -0.0354,-0.22758 -0.0519,-0.34235 -0.0166,-0.11478 -0.0327,-0.23026 -0.0479,-0.34576 -0.0152,-0.1155 -0.0295,-0.23137 -0.0434,-0.34703 -0.028,-0.23131 -0.0538,-0.46213 -0.0776,-0.69066 -0.0238,-0.22852 -0.0458,-0.45461 -0.0665,-0.67581 -0.0207,-0.22119 -0.0399,-0.43765 -0.0585,-0.64696 -0.0186,-0.20931 -0.0365,-0.41124 -0.0541,-0.60411 -0.0176,-0.19288 -0.0351,-0.37665 -0.0528,-0.54854 -0.0177,-0.17189 -0.0353,-0.33219 -0.0541,-0.47854 -0.009,-0.0732 -0.019,-0.14279 -0.0288,-0.20873 -0.01,-0.0659 -0.0202,-0.12811 -0.0306,-0.18624 -0.0104,-0.0581 -0.0212,-0.1123 -0.0324,-0.16206 -0.0112,-0.0498 -0.0226,-0.095 -0.0346,-0.13575 -0.012,-0.0408 -0.0243,-0.0773 -0.0372,-0.10861 -0.007,-0.0156 -0.0132,-0.0297 -0.02,-0.0429 -0.007,-0.0132 -0.0138,-0.0255 -0.0208,-0.0361 -0.007,-0.0106 -0.0161,-0.0202 -0.0275,-0.0289 -0.0114,-0.009 -0.0252,-0.0165 -0.0408,-0.0233 -0.0156,-0.007 -0.0331,-0.0128 -0.0528,-0.0178 -0.0196,-0.005 -0.0412,-0.009 -0.0647,-0.0127 -0.0235,-0.003 -0.0494,-0.006 -0.0767,-0.007 -0.0273,-0.002 -0.0564,-0.002 -0.0874,-0.002 -0.031,-3e-5 -0.0635,5.9e-4 -0.098,0.002 -0.0345,0.002 -0.0709,0.004 -0.10866,0.007 -0.0756,0.006 -0.15751,0.0149 -0.24569,0.0267 -0.0882,0.0119 -0.18244,0.0266 -0.28204,0.0437 -0.0996,0.0171 -0.20452,0.037 -0.31442,0.059 -0.10989,0.022 -0.22462,0.0462 -0.34368,0.0726 -0.11905,0.0264 -0.24276,0.0549 -0.36985,0.0853 -0.12708,0.0304 -0.25758,0.0624 -0.39158,0.0963 -0.13399,0.0339 -0.27133,0.0695 -0.41109,0.10648 -0.13976,0.037 -0.2822,0.0754 -0.42661,0.11497 -0.28882,0.0793 -0.58587,0.16354 -0.88648,0.25073 -0.30062,0.0872 -0.60485,0.17737 -0.90822,0.26896 -0.2895,0.0874 -0.57768,0.17601 -0.86165,0.2643 0.72469,-1.42074 3.05498,-8.87807 5.40539,-11.03867 1.1481,-1.05538 3.38918,-2.10053 6.20273,-2.99469 z" />
    <path
       style="display:inline;fill:#000000;fill-opacity:1;stroke:#000000;stroke-width:0.222077px;stroke-linecap:butt;stroke-linejoin:miter;stroke-opacity:1"
       d="m 260.9779,65.593019 c 0,0 -2.48463,6.81551 -10.6107,1.49066 0,0 5.56506,-9.15689 10.6107,-1.49066 z"
       id="path906"
       sodipodi:nodetypes="csc" />
    <path
       id="path2140-8"
       style="display:inline;fill:none;fill-opacity:1;stroke:#000000;stroke-width:1.5;stroke-linecap:butt;stroke-linejoin:miter;stroke-miterlimit:4;stroke-dasharray:none;stroke-opacity:1"
       d="m 263.34956,53.163829 c 2.01926,-0.009 3.93907,0.12466 5.64219,0.43315 5.84382,1.05849 13.13335,6.24654 20.47921,17.95884 7.34587,11.71229 1.63347,33.898841 -1.78095,36.840391 -1.62992,1.4042 -3.84291,2.11387 -5.6391,2.69731 -0.58491,0.18999 -1.299,0.3301 -2.07808,0.4412 -6.47113,0.92283 -18.61926,-0.65952 -19.81135,-1.29307 -1.33561,-0.70984 -4.37769,-7.09816 -3.78408,-10.07946 0.59361,-2.981321 1.03869,-4.542931 0.29668,-6.885391 -0.742,-2.34246 -3.4131,-4.96911 -5.86172,-5.18206 -1.12288,-0.0977 -2.72862,-0.20914 -4.26081,-0.30927 -1.80899,-0.11822 -3.51489,-0.21993 -4.19783,-0.25836 -1.26142,-0.071 -10.55223,1.7665 -14.24675,3.26493 -3.09612,1.25572 -7.25252,2.4741 -7.97173,0.0776 -1.54917,-5.16189 5.27089,-8.42483 5.96816,-9.16354 3.6203,-3.83547 7.81811,-9.35022 9.34956,-11.78321 0.0134,-0.0215 0.0323,-0.0638 0.0475,-0.0916 0.68783,-1.26239 3.05898,-8.93195 5.44308,-11.12352 1.1481,-1.05538 3.38919,-2.10053 6.20274,-2.9947 4.61257,-1.4659 10.76836,-2.52487 16.20333,-2.54924 z" />
    <ellipse
       style="opacity:1;fill:#000000;fill-opacity:1;stroke:none;stroke-width:0.7;stroke-linecap:round;stroke-dasharray:none;stroke-dashoffset:0;stroke-opacity:1"
       id="path3"
       cx="66.147888"
       cy="237.67845"
       rx="1.1772062"
       ry="0.84376144"
       transform="rotate(-56.464708)" />
  </g>
</svg>
